<mxfile host="Electron" modified="2023-11-29T12:03:47.241Z" agent="Mozilla/5.0 (Windows NT 10.0; Win64; x64) AppleWebKit/537.36 (KHTML, like Gecko) draw.io/22.1.2 Chrome/114.0.5735.289 Electron/25.9.4 Safari/537.36" etag="juiFRBsAXktLUq2UCkha" version="22.1.2" type="device">
  <diagram id="C5RBs43oDa-KdzZeNtuy" name="Page-1">
    <mxGraphModel dx="1036" dy="606" grid="1" gridSize="10" guides="1" tooltips="1" connect="1" arrows="1" fold="1" page="1" pageScale="1" pageWidth="827" pageHeight="1169" math="0" shadow="0">
      <root>
        <mxCell id="WIyWlLk6GJQsqaUBKTNV-0" />
        <mxCell id="WIyWlLk6GJQsqaUBKTNV-1" parent="WIyWlLk6GJQsqaUBKTNV-0" />
        <mxCell id="vghGXGC_Hi2z6te8nmUd-9" style="edgeStyle=orthogonalEdgeStyle;rounded=0;orthogonalLoop=1;jettySize=auto;html=1;exitX=0.5;exitY=1;exitDx=0;exitDy=0;" edge="1" parent="WIyWlLk6GJQsqaUBKTNV-1" source="vghGXGC_Hi2z6te8nmUd-0">
          <mxGeometry relative="1" as="geometry">
            <mxPoint x="414" y="160" as="targetPoint" />
          </mxGeometry>
        </mxCell>
        <mxCell id="vghGXGC_Hi2z6te8nmUd-0" value="start" style="ellipse;whiteSpace=wrap;html=1;" vertex="1" parent="WIyWlLk6GJQsqaUBKTNV-1">
          <mxGeometry x="354" y="40" width="120" height="80" as="geometry" />
        </mxCell>
        <mxCell id="vghGXGC_Hi2z6te8nmUd-3" style="edgeStyle=orthogonalEdgeStyle;rounded=0;orthogonalLoop=1;jettySize=auto;html=1;exitX=0.5;exitY=1;exitDx=0;exitDy=0;entryX=0.5;entryY=0;entryDx=0;entryDy=0;" edge="1" parent="WIyWlLk6GJQsqaUBKTNV-1" source="vghGXGC_Hi2z6te8nmUd-1" target="vghGXGC_Hi2z6te8nmUd-2">
          <mxGeometry relative="1" as="geometry" />
        </mxCell>
        <mxCell id="vghGXGC_Hi2z6te8nmUd-1" value="swapAB(int *x,int *y)" style="rounded=0;whiteSpace=wrap;html=1;" vertex="1" parent="WIyWlLk6GJQsqaUBKTNV-1">
          <mxGeometry x="690" y="60" width="120" height="60" as="geometry" />
        </mxCell>
        <mxCell id="vghGXGC_Hi2z6te8nmUd-2" value="temp = *x&lt;br&gt;*x = *y&lt;br&gt;*y = temp" style="rounded=0;whiteSpace=wrap;html=1;" vertex="1" parent="WIyWlLk6GJQsqaUBKTNV-1">
          <mxGeometry x="690" y="150" width="120" height="60" as="geometry" />
        </mxCell>
        <mxCell id="vghGXGC_Hi2z6te8nmUd-5" style="edgeStyle=orthogonalEdgeStyle;rounded=0;orthogonalLoop=1;jettySize=auto;html=1;exitX=0.5;exitY=1;exitDx=0;exitDy=0;" edge="1" parent="WIyWlLk6GJQsqaUBKTNV-1" source="vghGXGC_Hi2z6te8nmUd-4">
          <mxGeometry relative="1" as="geometry">
            <mxPoint x="920" y="160" as="targetPoint" />
          </mxGeometry>
        </mxCell>
        <mxCell id="vghGXGC_Hi2z6te8nmUd-4" value="caculateAB(int *x,int *y)" style="rounded=0;whiteSpace=wrap;html=1;" vertex="1" parent="WIyWlLk6GJQsqaUBKTNV-1">
          <mxGeometry x="860" y="60" width="120" height="60" as="geometry" />
        </mxCell>
        <mxCell id="vghGXGC_Hi2z6te8nmUd-8" style="edgeStyle=orthogonalEdgeStyle;rounded=0;orthogonalLoop=1;jettySize=auto;html=1;exitX=0.5;exitY=1;exitDx=0;exitDy=0;" edge="1" parent="WIyWlLk6GJQsqaUBKTNV-1" source="vghGXGC_Hi2z6te8nmUd-6" target="vghGXGC_Hi2z6te8nmUd-7">
          <mxGeometry relative="1" as="geometry" />
        </mxCell>
        <mxCell id="vghGXGC_Hi2z6te8nmUd-6" value="dif = *x - *y&lt;br&gt;sum = *x + *y" style="rounded=0;whiteSpace=wrap;html=1;" vertex="1" parent="WIyWlLk6GJQsqaUBKTNV-1">
          <mxGeometry x="860" y="160" width="120" height="60" as="geometry" />
        </mxCell>
        <mxCell id="vghGXGC_Hi2z6te8nmUd-7" value="dif&lt;br&gt;sum" style="shape=parallelogram;perimeter=parallelogramPerimeter;whiteSpace=wrap;html=1;fixedSize=1;" vertex="1" parent="WIyWlLk6GJQsqaUBKTNV-1">
          <mxGeometry x="860" y="250" width="120" height="60" as="geometry" />
        </mxCell>
        <mxCell id="vghGXGC_Hi2z6te8nmUd-13" style="edgeStyle=orthogonalEdgeStyle;rounded=0;orthogonalLoop=1;jettySize=auto;html=1;exitX=0.5;exitY=1;exitDx=0;exitDy=0;" edge="1" parent="WIyWlLk6GJQsqaUBKTNV-1" source="vghGXGC_Hi2z6te8nmUd-11" target="vghGXGC_Hi2z6te8nmUd-12">
          <mxGeometry relative="1" as="geometry" />
        </mxCell>
        <mxCell id="vghGXGC_Hi2z6te8nmUd-11" value="a = 10&lt;br&gt;b = 5" style="rounded=0;whiteSpace=wrap;html=1;" vertex="1" parent="WIyWlLk6GJQsqaUBKTNV-1">
          <mxGeometry x="360" y="160" width="120" height="60" as="geometry" />
        </mxCell>
        <mxCell id="vghGXGC_Hi2z6te8nmUd-14" style="edgeStyle=orthogonalEdgeStyle;rounded=0;orthogonalLoop=1;jettySize=auto;html=1;exitX=0.5;exitY=1;exitDx=0;exitDy=0;" edge="1" parent="WIyWlLk6GJQsqaUBKTNV-1" source="vghGXGC_Hi2z6te8nmUd-12">
          <mxGeometry relative="1" as="geometry">
            <mxPoint x="420" y="350" as="targetPoint" />
          </mxGeometry>
        </mxCell>
        <mxCell id="vghGXGC_Hi2z6te8nmUd-12" value="calculateAB(&amp;amp;a,&amp;amp;b)" style="rounded=0;whiteSpace=wrap;html=1;" vertex="1" parent="WIyWlLk6GJQsqaUBKTNV-1">
          <mxGeometry x="360" y="260" width="120" height="60" as="geometry" />
        </mxCell>
        <mxCell id="vghGXGC_Hi2z6te8nmUd-17" style="edgeStyle=orthogonalEdgeStyle;rounded=0;orthogonalLoop=1;jettySize=auto;html=1;exitX=0.5;exitY=1;exitDx=0;exitDy=0;entryX=0.5;entryY=0;entryDx=0;entryDy=0;" edge="1" parent="WIyWlLk6GJQsqaUBKTNV-1" source="vghGXGC_Hi2z6te8nmUd-15" target="vghGXGC_Hi2z6te8nmUd-16">
          <mxGeometry relative="1" as="geometry" />
        </mxCell>
        <mxCell id="vghGXGC_Hi2z6te8nmUd-15" value="swapAB(&amp;amp;a,&amp;amp;b)" style="rounded=0;whiteSpace=wrap;html=1;" vertex="1" parent="WIyWlLk6GJQsqaUBKTNV-1">
          <mxGeometry x="360" y="350" width="120" height="60" as="geometry" />
        </mxCell>
        <mxCell id="vghGXGC_Hi2z6te8nmUd-19" style="edgeStyle=orthogonalEdgeStyle;rounded=0;orthogonalLoop=1;jettySize=auto;html=1;exitX=0.5;exitY=1;exitDx=0;exitDy=0;" edge="1" parent="WIyWlLk6GJQsqaUBKTNV-1" source="vghGXGC_Hi2z6te8nmUd-16" target="vghGXGC_Hi2z6te8nmUd-18">
          <mxGeometry relative="1" as="geometry" />
        </mxCell>
        <mxCell id="vghGXGC_Hi2z6te8nmUd-16" value="calculateAB(&amp;amp;a,&amp;amp;b)" style="rounded=0;whiteSpace=wrap;html=1;" vertex="1" parent="WIyWlLk6GJQsqaUBKTNV-1">
          <mxGeometry x="360" y="440" width="120" height="60" as="geometry" />
        </mxCell>
        <mxCell id="vghGXGC_Hi2z6te8nmUd-18" value="end" style="ellipse;whiteSpace=wrap;html=1;" vertex="1" parent="WIyWlLk6GJQsqaUBKTNV-1">
          <mxGeometry x="360" y="530" width="120" height="80" as="geometry" />
        </mxCell>
      </root>
    </mxGraphModel>
  </diagram>
</mxfile>
